<?xml version="1.0" encoding="UTF-8"?>
<svg xmlns="http://www.w3.org/2000/svg" height="69" width="69" class="pyqrcode"><path stroke="#000" class="pyqrline" d="M4 4.5h7m2 0h3m3 0h1m2 0h2m2 0h1m4 0h2m1 0h1m1 0h1m2 0h1m1 0h1m3 0h3m1 0h1m2 0h1m2 0h2m1 0h7m-61 1h1m5 0h1m2 0h2m1 0h2m1 0h5m3 0h1m3 0h2m4 0h3m1 0h1m1 0h2m1 0h3m1 0h2m3 0h2m1 0h1m5 0h1m-61 1h1m1 0h3m1 0h1m3 0h1m1 0h5m1 0h1m4 0h1m6 0h2m1 0h1m3 0h4m1 0h1m1 0h3m2 0h4m1 0h1m1 0h3m1 0h1m-61 1h1m1 0h3m1 0h1m2 0h1m2 0h1m2 0h2m1 0h2m2 0h1m1 0h2m4 0h6m3 0h2m2 0h1m1 0h1m1 0h1m2 0h1m1 0h1m1 0h1m1 0h3m1 0h1m-61 1h1m1 0h3m1 0h1m1 0h1m1 0h2m2 0h2m3 0h3m1 0h2m1 0h7m1 0h2m2 0h4m1 0h2m2 0h5m2 0h1m1 0h3m1 0h1m-61 1h1m5 0h1m5 0h3m1 0h1m1 0h4m2 0h1m3 0h1m3 0h1m2 0h1m3 0h2m6 0h4m3 0h1m5 0h1m-61 1h7m1 0h1m1 0h1m1 0h1m1 0h1m1 0h1m1 0h1m1 0h1m1 0h1m1 0h1m1 0h1m1 0h1m1 0h1m1 0h1m1 0h1m1 0h1m1 0h1m1 0h1m1 0h1m1 0h1m1 0h1m1 0h1m1 0h1m1 0h1m1 0h7m-53 1h2m5 0h2m1 0h2m2 0h1m2 0h1m1 0h2m3 0h1m1 0h1m4 0h1m1 0h1m3 0h5m-48 1h2m2 0h3m2 0h1m3 0h1m1 0h3m5 0h1m1 0h6m1 0h1m2 0h1m1 0h1m1 0h1m1 0h1m3 0h1m2 0h2m1 0h2m1 0h1m-56 1h1m1 0h1m1 0h1m5 0h2m1 0h1m1 0h2m2 0h2m1 0h2m2 0h2m3 0h1m2 0h3m4 0h1m1 0h1m2 0h3m3 0h2m1 0h2m1 0h1m-60 1h2m1 0h1m2 0h1m2 0h1m3 0h2m1 0h4m1 0h4m3 0h2m4 0h2m1 0h4m5 0h1m3 0h1m1 0h3m1 0h1m2 0h1m-58 1h2m1 0h1m2 0h1m2 0h5m1 0h1m1 0h2m1 0h4m3 0h2m3 0h1m3 0h1m5 0h1m1 0h1m1 0h1m1 0h2m3 0h2m1 0h1m-59 1h2m2 0h6m5 0h4m1 0h1m2 0h3m1 0h1m2 0h1m2 0h1m3 0h1m2 0h1m1 0h1m3 0h4m1 0h2m1 0h1m2 0h4m-60 1h1m3 0h1m5 0h3m3 0h1m1 0h2m2 0h3m2 0h1m1 0h3m1 0h1m1 0h1m7 0h2m4 0h1m2 0h1m2 0h1m2 0h1m-59 1h1m1 0h5m1 0h1m1 0h1m3 0h2m2 0h1m5 0h4m1 0h1m1 0h1m2 0h2m3 0h1m2 0h2m2 0h2m1 0h1m1 0h1m1 0h2m2 0h1m1 0h1m-61 1h1m1 0h1m2 0h1m1 0h1m2 0h1m2 0h2m2 0h1m1 0h2m2 0h3m3 0h2m1 0h3m2 0h3m5 0h1m5 0h1m1 0h1m6 0h1m-61 1h1m1 0h1m1 0h4m1 0h1m1 0h1m3 0h1m1 0h5m5 0h2m2 0h2m2 0h3m3 0h4m5 0h1m3 0h3m2 0h1m-60 1h1m3 0h2m1 0h2m2 0h4m1 0h1m2 0h1m1 0h2m4 0h4m3 0h1m1 0h3m1 0h1m2 0h1m2 0h1m4 0h3m1 0h1m4 0h1m-61 1h3m3 0h1m4 0h3m4 0h1m2 0h6m3 0h1m1 0h1m2 0h2m8 0h4m2 0h2m4 0h2m1 0h1m-60 1h3m4 0h5m1 0h2m2 0h3m3 0h1m2 0h1m1 0h1m1 0h1m5 0h3m7 0h2m1 0h1m1 0h2m5 0h1m-57 1h5m2 0h1m2 0h1m3 0h4m1 0h1m2 0h3m1 0h1m1 0h1m2 0h4m1 0h3m11 0h1m1 0h1m2 0h1m-59 1h4m5 0h1m1 0h3m3 0h1m1 0h1m4 0h2m1 0h2m3 0h2m2 0h1m1 0h3m1 0h3m2 0h2m2 0h1m2 0h1m1 0h1m-56 1h2m1 0h1m1 0h2m1 0h2m2 0h2m2 0h1m3 0h1m1 0h2m1 0h3m3 0h4m2 0h1m1 0h1m1 0h2m1 0h4m5 0h1m2 0h1m-55 1h2m4 0h2m3 0h1m1 0h1m1 0h1m1 0h4m2 0h3m2 0h1m1 0h4m2 0h2m1 0h3m1 0h3m3 0h1m2 0h5m-60 1h2m1 0h1m1 0h2m2 0h1m1 0h1m1 0h1m2 0h1m1 0h1m1 0h7m2 0h1m2 0h3m3 0h2m1 0h1m1 0h1m1 0h1m1 0h2m2 0h2m1 0h1m5 0h1m-60 1h1m2 0h1m3 0h2m1 0h1m2 0h2m3 0h1m2 0h2m1 0h3m4 0h1m1 0h2m3 0h2m2 0h2m4 0h2m2 0h1m2 0h1m2 0h2m-61 1h2m1 0h1m2 0h2m3 0h1m2 0h2m1 0h1m7 0h2m2 0h1m1 0h2m2 0h2m1 0h3m1 0h1m1 0h1m1 0h1m1 0h1m1 0h1m1 0h1m1 0h2m-55 1h2m1 0h1m3 0h1m1 0h1m1 0h1m1 0h1m2 0h1m1 0h2m1 0h1m1 0h1m3 0h3m3 0h1m1 0h1m1 0h2m1 0h2m8 0h1m2 0h1m1 0h2m-58 1h2m1 0h10m1 0h4m1 0h3m5 0h6m1 0h3m2 0h3m2 0h1m2 0h1m2 0h7m1 0h3m-61 1h1m1 0h3m3 0h2m3 0h1m1 0h1m1 0h1m5 0h1m1 0h4m3 0h1m1 0h2m2 0h4m1 0h4m2 0h1m1 0h2m3 0h1m1 0h1m1 0h1m-61 1h1m2 0h2m1 0h1m1 0h1m6 0h1m3 0h1m3 0h1m4 0h1m1 0h1m1 0h1m1 0h1m2 0h1m6 0h1m1 0h1m1 0h1m1 0h1m1 0h1m1 0h1m1 0h2m2 0h1m-60 1h1m2 0h1m3 0h2m6 0h1m1 0h3m1 0h7m3 0h1m1 0h2m5 0h2m4 0h1m2 0h1m1 0h1m3 0h1m2 0h1m-60 1h1m1 0h8m2 0h2m1 0h4m6 0h1m2 0h6m1 0h1m1 0h1m1 0h2m1 0h2m1 0h3m1 0h1m1 0h6m-57 1h3m4 0h1m2 0h2m1 0h1m1 0h4m3 0h1m1 0h1m1 0h3m1 0h1m1 0h2m1 0h2m1 0h1m3 0h1m5 0h1m4 0h1m3 0h1m1 0h1m-57 1h2m1 0h2m1 0h2m1 0h5m2 0h1m1 0h1m3 0h1m1 0h2m1 0h2m5 0h2m1 0h3m1 0h1m1 0h2m4 0h2m1 0h2m2 0h1m-58 1h1m14 0h2m2 0h2m2 0h1m1 0h1m2 0h1m1 0h1m1 0h1m1 0h2m1 0h2m2 0h1m1 0h2m4 0h5m2 0h1m-57 1h3m1 0h1m5 0h3m1 0h1m2 0h1m4 0h2m1 0h1m1 0h1m1 0h1m1 0h1m1 0h1m2 0h2m2 0h3m2 0h3m1 0h2m1 0h3m1 0h1m1 0h1m-61 1h1m4 0h1m1 0h1m3 0h2m1 0h12m6 0h5m2 0h1m1 0h1m3 0h1m1 0h1m2 0h1m2 0h1m2 0h2m1 0h2m-58 1h6m1 0h1m1 0h2m2 0h1m2 0h8m1 0h2m1 0h2m2 0h1m1 0h2m1 0h1m1 0h1m1 0h2m4 0h4m1 0h1m2 0h2m-60 1h5m2 0h1m1 0h1m2 0h3m2 0h1m1 0h1m1 0h1m1 0h1m3 0h3m1 0h1m1 0h5m1 0h2m1 0h1m2 0h1m1 0h1m5 0h3m4 0h1m-57 1h3m1 0h6m1 0h1m1 0h1m3 0h2m1 0h3m1 0h1m2 0h1m2 0h4m4 0h1m1 0h2m1 0h1m2 0h1m2 0h1m4 0h1m-58 1h5m2 0h1m2 0h1m1 0h3m2 0h2m2 0h1m1 0h2m1 0h1m2 0h1m2 0h6m1 0h2m1 0h1m2 0h4m2 0h1m2 0h1m2 0h1m-58 1h1m2 0h4m6 0h1m1 0h1m4 0h2m1 0h2m3 0h1m3 0h3m1 0h3m1 0h1m1 0h1m4 0h1m1 0h2m2 0h1m2 0h1m2 0h1m-61 1h1m3 0h1m5 0h1m2 0h1m1 0h1m4 0h2m5 0h1m1 0h2m6 0h2m1 0h2m5 0h5m1 0h2m1 0h1m2 0h1m-54 1h2m1 0h1m1 0h2m1 0h3m3 0h1m3 0h1m2 0h2m1 0h2m1 0h1m1 0h1m1 0h6m3 0h1m2 0h1m6 0h1m-57 1h1m2 0h1m5 0h1m1 0h1m1 0h2m1 0h3m4 0h1m2 0h2m2 0h1m2 0h1m1 0h3m3 0h2m2 0h1m2 0h1m2 0h2m1 0h1m2 0h1m-58 1h1m1 0h7m4 0h2m5 0h1m1 0h1m1 0h2m1 0h2m1 0h1m1 0h1m1 0h1m1 0h4m2 0h2m2 0h2m4 0h2m1 0h5m-59 1h4m6 0h1m2 0h1m2 0h3m2 0h3m3 0h4m1 0h1m1 0h3m1 0h1m2 0h3m1 0h1m2 0h1m4 0h1m1 0h1m1 0h1m1 0h1m-61 1h1m1 0h1m1 0h1m1 0h1m2 0h1m2 0h1m1 0h1m1 0h1m1 0h3m1 0h1m4 0h1m2 0h1m1 0h2m1 0h1m1 0h1m1 0h1m3 0h1m1 0h1m2 0h1m2 0h1m1 0h1m3 0h1m-58 1h2m2 0h2m3 0h3m1 0h3m1 0h3m2 0h1m1 0h1m1 0h2m4 0h2m1 0h1m1 0h1m1 0h3m5 0h1m2 0h4m1 0h2m1 0h3m-59 1h5m2 0h3m1 0h1m1 0h4m1 0h2m2 0h5m2 0h2m1 0h5m1 0h1m1 0h2m2 0h1m2 0h2m1 0h2m2 0h1m-57 1h3m1 0h1m2 0h3m4 0h6m2 0h5m1 0h2m4 0h1m1 0h2m1 0h3m3 0h1m7 0h5m2 0h1m-61 1h4m2 0h1m1 0h2m2 0h1m1 0h2m2 0h2m1 0h1m1 0h2m2 0h6m1 0h1m3 0h1m2 0h2m1 0h2m6 0h5m1 0h2m-52 1h2m1 0h1m2 0h2m2 0h2m1 0h3m2 0h3m3 0h2m3 0h1m2 0h7m1 0h1m3 0h1m3 0h1m1 0h1m-59 1h7m1 0h1m1 0h1m4 0h2m3 0h1m1 0h2m3 0h2m1 0h1m1 0h4m2 0h2m2 0h1m1 0h3m1 0h1m1 0h3m1 0h1m1 0h2m1 0h2m-61 1h1m5 0h1m5 0h1m1 0h1m1 0h2m5 0h3m1 0h2m3 0h1m1 0h1m1 0h5m4 0h3m2 0h1m1 0h1m3 0h1m-57 1h1m1 0h3m1 0h1m2 0h4m2 0h1m1 0h1m1 0h1m1 0h1m3 0h9m4 0h1m1 0h2m3 0h1m1 0h1m4 0h5m3 0h1m-61 1h1m1 0h3m1 0h1m1 0h1m5 0h3m1 0h1m3 0h3m2 0h2m3 0h1m1 0h3m2 0h1m2 0h1m5 0h1m2 0h2m1 0h1m1 0h1m3 0h1m-61 1h1m1 0h3m1 0h1m1 0h1m1 0h1m2 0h1m1 0h3m2 0h3m4 0h2m2 0h3m4 0h1m2 0h4m1 0h2m1 0h1m1 0h1m1 0h1m2 0h4m-60 1h1m5 0h1m4 0h1m2 0h3m1 0h2m1 0h1m1 0h3m2 0h4m1 0h1m1 0h1m1 0h1m1 0h1m3 0h2m1 0h1m1 0h2m1 0h2m2 0h4m-59 1h7m2 0h7m1 0h8m1 0h2m3 0h2m1 0h1m1 0h2m3 0h2m2 0h1m1 0h3m1 0h1m4 0h1m1 0h3"/></svg>
