<?xml version="1.0" encoding="UTF-8"?>
<svg xmlns="http://www.w3.org/2000/svg" height="73" width="73" class="pyqrcode"><path stroke="#000" class="pyqrline" d="M4 4.5h7m5 0h7m1 0h2m1 0h2m1 0h2m2 0h2m1 0h1m5 0h1m1 0h2m1 0h1m1 0h8m1 0h1m2 0h7m-65 1h1m5 0h1m1 0h5m1 0h3m1 0h2m1 0h2m3 0h1m3 0h3m1 0h2m3 0h1m2 0h2m6 0h1m5 0h1m1 0h1m5 0h1m-65 1h1m1 0h3m1 0h1m1 0h1m2 0h2m2 0h2m1 0h2m1 0h1m3 0h4m3 0h3m5 0h2m1 0h5m2 0h2m1 0h2m1 0h1m1 0h1m1 0h3m1 0h1m-65 1h1m1 0h3m1 0h1m1 0h5m1 0h1m1 0h1m1 0h1m2 0h4m1 0h2m1 0h10m4 0h1m1 0h1m3 0h1m4 0h2m2 0h1m1 0h3m1 0h1m-65 1h1m1 0h3m1 0h1m1 0h1m1 0h1m2 0h2m1 0h1m1 0h4m1 0h1m3 0h2m1 0h5m1 0h2m1 0h4m1 0h3m1 0h1m1 0h3m3 0h1m1 0h1m1 0h3m1 0h1m-65 1h1m5 0h1m1 0h4m3 0h1m2 0h1m4 0h1m3 0h1m1 0h2m3 0h1m1 0h1m1 0h1m3 0h5m2 0h2m3 0h1m3 0h1m5 0h1m-65 1h7m1 0h1m1 0h1m1 0h1m1 0h1m1 0h1m1 0h1m1 0h1m1 0h1m1 0h1m1 0h1m1 0h1m1 0h1m1 0h1m1 0h1m1 0h1m1 0h1m1 0h1m1 0h1m1 0h1m1 0h1m1 0h1m1 0h1m1 0h1m1 0h1m1 0h1m1 0h7m-56 1h1m1 0h3m1 0h2m1 0h3m4 0h1m1 0h2m1 0h1m3 0h1m2 0h2m2 0h2m5 0h1m3 0h1m-51 1h1m2 0h4m1 0h3m2 0h2m2 0h1m1 0h1m6 0h8m1 0h3m1 0h1m4 0h1m1 0h5m1 0h2m1 0h1m1 0h5m-64 1h1m2 0h1m1 0h1m2 0h1m1 0h4m3 0h1m1 0h1m2 0h2m5 0h1m3 0h1m3 0h1m1 0h3m2 0h2m1 0h2m6 0h1m4 0h1m3 0h1m-65 1h1m3 0h3m1 0h1m4 0h2m2 0h1m1 0h2m1 0h4m3 0h1m3 0h5m1 0h1m1 0h2m2 0h1m3 0h1m1 0h1m2 0h1m1 0h2m1 0h1m1 0h4m-64 1h1m1 0h1m1 0h1m3 0h3m1 0h3m1 0h1m2 0h1m4 0h1m5 0h2m1 0h2m3 0h1m1 0h1m1 0h1m4 0h3m1 0h1m2 0h2m3 0h2m-61 1h2m1 0h1m1 0h4m3 0h3m1 0h2m4 0h2m4 0h3m2 0h3m6 0h7m2 0h4m4 0h5m-65 1h3m2 0h1m1 0h1m1 0h2m1 0h5m1 0h1m5 0h5m1 0h1m2 0h4m1 0h3m2 0h1m4 0h3m6 0h1m5 0h1m-63 1h1m1 0h1m2 0h1m2 0h2m2 0h2m2 0h2m1 0h2m5 0h1m2 0h2m1 0h2m3 0h1m1 0h1m1 0h4m1 0h1m1 0h2m1 0h2m1 0h1m4 0h3m1 0h1m-64 1h3m1 0h1m4 0h2m4 0h2m2 0h1m2 0h1m1 0h1m2 0h1m1 0h3m2 0h2m2 0h1m1 0h2m5 0h1m3 0h1m3 0h1m1 0h1m1 0h1m-60 1h1m4 0h1m1 0h1m1 0h1m1 0h1m2 0h1m2 0h6m1 0h2m5 0h1m1 0h2m2 0h2m4 0h1m1 0h1m1 0h8m2 0h4m1 0h2m-65 1h1m1 0h1m1 0h1m3 0h1m3 0h1m2 0h2m3 0h5m1 0h2m4 0h3m1 0h1m3 0h1m6 0h1m3 0h1m10 0h1m-63 1h1m4 0h2m1 0h1m1 0h1m1 0h1m4 0h3m1 0h5m1 0h1m3 0h2m2 0h1m1 0h1m3 0h4m1 0h2m1 0h1m1 0h1m1 0h1m1 0h3m1 0h2m1 0h2m-64 1h2m2 0h1m8 0h1m1 0h1m2 0h1m1 0h3m2 0h2m1 0h3m2 0h1m1 0h2m1 0h7m1 0h1m1 0h1m1 0h1m1 0h3m3 0h1m1 0h2m-62 1h1m3 0h1m1 0h4m2 0h2m2 0h2m2 0h2m1 0h1m1 0h2m4 0h1m1 0h1m1 0h1m4 0h1m2 0h2m1 0h4m1 0h2m1 0h2m1 0h1m2 0h1m2 0h2m-65 1h1m7 0h5m1 0h4m5 0h2m3 0h3m2 0h6m1 0h2m1 0h1m1 0h1m6 0h2m5 0h1m-60 1h2m1 0h1m2 0h2m3 0h1m1 0h1m1 0h4m1 0h1m1 0h1m4 0h2m2 0h1m1 0h4m4 0h1m3 0h5m1 0h1m1 0h1m1 0h1m1 0h2m1 0h3m-59 1h1m2 0h2m2 0h1m1 0h1m2 0h4m2 0h2m6 0h2m1 0h1m1 0h1m1 0h2m1 0h1m1 0h2m9 0h2m1 0h1m7 0h1m-65 1h1m2 0h2m1 0h1m5 0h1m2 0h3m5 0h4m1 0h3m3 0h1m4 0h8m1 0h9m1 0h1m1 0h3m-59 1h2m3 0h1m1 0h3m2 0h1m2 0h3m1 0h2m2 0h1m1 0h9m1 0h2m1 0h2m5 0h1m2 0h2m1 0h1m7 0h2m-64 1h8m2 0h1m1 0h3m1 0h1m3 0h1m7 0h1m2 0h1m1 0h5m4 0h3m1 0h2m1 0h2m1 0h1m1 0h2m1 0h4m2 0h1m-65 1h1m2 0h3m2 0h4m1 0h1m2 0h2m1 0h2m1 0h5m3 0h3m2 0h1m1 0h1m1 0h2m1 0h1m2 0h1m6 0h2m5 0h1m1 0h1m1 0h1m-62 1h1m1 0h4m2 0h3m1 0h1m1 0h1m2 0h2m3 0h1m1 0h2m3 0h2m1 0h4m2 0h1m1 0h1m6 0h7m1 0h2m1 0h2m1 0h2m-65 1h2m2 0h1m2 0h1m2 0h2m1 0h1m1 0h1m2 0h1m1 0h3m5 0h1m1 0h1m2 0h2m1 0h1m7 0h2m2 0h1m4 0h1m1 0h1m3 0h2m1 0h3m-65 1h2m1 0h8m4 0h2m1 0h7m1 0h1m2 0h6m1 0h1m8 0h1m3 0h5m1 0h6m1 0h3m-65 1h2m1 0h2m3 0h5m2 0h1m2 0h2m1 0h1m2 0h1m1 0h2m2 0h1m3 0h1m5 0h2m2 0h1m3 0h2m1 0h1m4 0h1m3 0h1m3 0h1m-65 1h5m1 0h1m1 0h2m1 0h1m2 0h2m2 0h2m1 0h3m2 0h2m2 0h1m1 0h1m1 0h1m2 0h5m1 0h6m1 0h5m1 0h1m1 0h1m1 0h1m2 0h2m-62 1h2m3 0h1m1 0h1m1 0h1m1 0h1m4 0h2m2 0h1m1 0h1m1 0h4m3 0h1m1 0h1m1 0h6m5 0h1m1 0h1m4 0h1m3 0h2m1 0h2m-61 1h5m1 0h2m1 0h1m2 0h3m6 0h2m1 0h1m1 0h7m2 0h2m2 0h3m1 0h2m1 0h3m2 0h7m2 0h1m-64 1h1m3 0h1m1 0h1m1 0h1m1 0h3m1 0h2m4 0h4m2 0h1m2 0h3m2 0h3m1 0h1m4 0h2m2 0h3m1 0h1m2 0h2m1 0h3m-61 1h1m4 0h2m1 0h1m1 0h1m1 0h2m1 0h2m1 0h2m1 0h1m3 0h3m3 0h1m1 0h1m2 0h2m1 0h1m1 0h1m1 0h3m2 0h1m1 0h6m1 0h3m1 0h1m2 0h1m-65 1h1m1 0h1m4 0h1m2 0h1m2 0h2m2 0h1m1 0h3m2 0h2m5 0h4m1 0h1m1 0h4m3 0h1m1 0h1m16 0h1m-63 1h1m3 0h1m1 0h1m1 0h1m2 0h1m2 0h1m3 0h3m4 0h5m1 0h5m1 0h2m2 0h2m1 0h1m1 0h1m2 0h3m1 0h1m1 0h3m2 0h3m-64 1h5m1 0h2m1 0h1m1 0h1m5 0h2m2 0h1m2 0h1m1 0h1m1 0h2m7 0h1m2 0h2m1 0h5m3 0h1m2 0h1m1 0h2m1 0h1m2 0h1m-60 1h1m1 0h1m1 0h2m2 0h2m3 0h1m1 0h2m2 0h1m1 0h1m1 0h1m1 0h1m1 0h2m1 0h1m1 0h1m2 0h3m2 0h1m1 0h5m1 0h5m2 0h2m1 0h2m-63 1h1m2 0h1m3 0h1m2 0h3m2 0h4m3 0h3m2 0h1m1 0h2m1 0h1m1 0h1m1 0h1m1 0h4m4 0h2m4 0h1m2 0h1m1 0h3m1 0h1m1 0h1m-65 1h3m1 0h1m1 0h3m4 0h2m1 0h2m1 0h2m2 0h2m1 0h1m1 0h2m1 0h1m3 0h3m1 0h1m4 0h1m2 0h3m3 0h4m1 0h2m1 0h1m2 0h1m-65 1h2m1 0h3m1 0h1m1 0h3m2 0h3m2 0h2m3 0h1m1 0h3m1 0h2m1 0h4m2 0h1m2 0h3m3 0h1m2 0h2m2 0h1m2 0h3m3 0h1m-65 1h1m1 0h1m1 0h3m1 0h1m2 0h3m5 0h2m1 0h1m1 0h1m3 0h4m1 0h2m3 0h3m2 0h2m1 0h5m1 0h1m1 0h3m2 0h6m-65 1h1m3 0h1m2 0h2m1 0h5m1 0h1m3 0h4m2 0h1m1 0h1m2 0h1m1 0h4m2 0h1m2 0h2m1 0h1m5 0h1m1 0h1m4 0h1m3 0h1m1 0h1m-65 1h1m2 0h1m2 0h1m1 0h2m3 0h1m1 0h2m1 0h2m1 0h1m1 0h1m1 0h3m1 0h1m1 0h2m1 0h2m2 0h3m2 0h3m1 0h3m1 0h3m1 0h2m1 0h2m2 0h3m-65 1h2m3 0h1m5 0h1m1 0h5m5 0h2m1 0h1m5 0h1m1 0h1m1 0h3m8 0h2m3 0h1m3 0h6m-60 1h2m1 0h3m4 0h1m3 0h6m5 0h1m1 0h1m1 0h1m1 0h1m1 0h1m4 0h1m3 0h1m2 0h2m2 0h4m1 0h3m2 0h4m-65 1h1m2 0h1m1 0h1m1 0h4m2 0h1m1 0h5m4 0h1m2 0h1m1 0h1m3 0h1m1 0h7m1 0h2m3 0h2m5 0h2m7 0h1m-65 1h1m1 0h2m2 0h1m1 0h3m1 0h2m3 0h1m1 0h1m3 0h1m1 0h1m3 0h1m1 0h4m2 0h1m1 0h1m7 0h2m2 0h3m2 0h9m-64 1h2m1 0h2m1 0h2m1 0h2m2 0h2m1 0h2m1 0h5m1 0h2m1 0h1m2 0h4m3 0h3m2 0h2m5 0h5m2 0h1m1 0h1m3 0h1m-65 1h1m4 0h3m3 0h1m1 0h1m1 0h2m1 0h1m3 0h1m2 0h2m1 0h1m1 0h3m1 0h2m1 0h3m1 0h6m1 0h6m1 0h3m3 0h1m1 0h2m-63 1h4m1 0h1m2 0h2m2 0h2m1 0h1m3 0h2m2 0h2m1 0h5m3 0h2m1 0h1m2 0h1m2 0h1m1 0h2m4 0h3m3 0h1m4 0h1m-63 1h2m1 0h2m1 0h1m2 0h3m1 0h1m4 0h2m6 0h3m1 0h1m2 0h3m1 0h1m1 0h5m3 0h1m1 0h4m1 0h3m1 0h2m1 0h2m-65 1h1m2 0h1m4 0h4m3 0h2m2 0h7m4 0h1m1 0h1m1 0h1m3 0h2m1 0h1m1 0h2m6 0h2m3 0h4m1 0h1m-61 1h2m1 0h1m1 0h2m1 0h1m2 0h1m2 0h3m1 0h1m5 0h1m2 0h1m1 0h5m2 0h1m2 0h1m3 0h5m1 0h1m1 0h10m1 0h2m-57 1h2m2 0h2m1 0h2m4 0h1m1 0h1m2 0h1m1 0h3m3 0h1m1 0h1m1 0h2m3 0h1m4 0h1m2 0h1m4 0h1m3 0h1m3 0h1m-65 1h7m1 0h4m1 0h2m1 0h4m1 0h2m1 0h1m1 0h1m1 0h1m1 0h1m1 0h1m1 0h2m1 0h1m2 0h2m2 0h4m2 0h4m1 0h2m1 0h1m1 0h5m-65 1h1m5 0h1m1 0h2m2 0h1m2 0h1m2 0h2m2 0h1m1 0h1m3 0h3m3 0h1m1 0h2m2 0h2m2 0h3m1 0h1m2 0h2m3 0h1m3 0h1m3 0h1m-65 1h1m1 0h3m1 0h1m2 0h1m2 0h1m2 0h1m2 0h4m1 0h1m2 0h2m1 0h10m4 0h3m2 0h3m1 0h10m1 0h1m-64 1h1m1 0h3m1 0h1m3 0h1m2 0h5m5 0h4m1 0h3m1 0h1m1 0h1m1 0h4m1 0h2m2 0h2m4 0h1m3 0h2m-57 1h1m1 0h3m1 0h1m1 0h6m1 0h2m2 0h1m3 0h2m2 0h3m1 0h1m1 0h1m1 0h1m1 0h5m1 0h4m1 0h2m2 0h10m1 0h2m-65 1h1m5 0h1m3 0h3m1 0h1m1 0h1m2 0h2m1 0h1m1 0h6m1 0h1m1 0h2m2 0h5m1 0h3m2 0h1m2 0h3m1 0h2m3 0h2m-62 1h7m3 0h4m1 0h2m1 0h1m4 0h1m1 0h1m3 0h1m1 0h5m4 0h1m1 0h11m1 0h4m1 0h1m4 0h1"/></svg>
